<mxfile host="app.diagrams.net" modified="2023-04-14T19:20:59.551Z" agent="Mozilla/5.0 (Windows NT 10.0; Win64; x64) AppleWebKit/537.36 (KHTML, like Gecko) Chrome/112.0.0.0 Safari/537.36" etag="shjXvkJsF5WK7mSjzymc" version="21.1.7" type="device">
  <diagram id="hUBGQhqTqr-S0rAZ4PUK" name="Page-1">
    <mxGraphModel dx="478" dy="236" grid="1" gridSize="10" guides="1" tooltips="1" connect="1" arrows="1" fold="1" page="1" pageScale="1" pageWidth="827" pageHeight="1169" math="0" shadow="0">
      <root>
        <mxCell id="0" />
        <mxCell id="1" parent="0" />
        <mxCell id="tuV2IuA_fdQPZQsqmt-C-1" value="" style="rounded=0;whiteSpace=wrap;html=1;" parent="1" vertex="1">
          <mxGeometry x="210" y="280" width="520" height="320" as="geometry" />
        </mxCell>
        <mxCell id="tuV2IuA_fdQPZQsqmt-C-2" value="" style="rounded=0;whiteSpace=wrap;html=1;" parent="1" vertex="1">
          <mxGeometry x="240" y="310" width="310" height="200" as="geometry" />
        </mxCell>
        <mxCell id="tuV2IuA_fdQPZQsqmt-C-3" value="&lt;font face=&quot;computer modern&quot;&gt;&lt;span style=&quot;font-size: 13px;&quot;&gt;Náhľad videa&lt;/span&gt;&lt;/font&gt;" style="text;html=1;align=center;verticalAlign=middle;resizable=0;points=[];autosize=1;strokeColor=none;fillColor=none;" parent="1" vertex="1">
          <mxGeometry x="350" y="395" width="90" height="30" as="geometry" />
        </mxCell>
        <mxCell id="tuV2IuA_fdQPZQsqmt-C-4" value="" style="rounded=0;whiteSpace=wrap;html=1;" parent="1" vertex="1">
          <mxGeometry x="240" y="530" width="350" height="50" as="geometry" />
        </mxCell>
        <mxCell id="tuV2IuA_fdQPZQsqmt-C-5" value="&lt;font style=&quot;font-size: 13px;&quot; face=&quot;computer modern&quot;&gt;Ovládanie&lt;/font&gt;" style="text;html=1;align=center;verticalAlign=middle;resizable=0;points=[];autosize=1;strokeColor=none;fillColor=none;" parent="1" vertex="1">
          <mxGeometry x="355" y="540" width="80" height="30" as="geometry" />
        </mxCell>
        <mxCell id="tuV2IuA_fdQPZQsqmt-C-6" value="" style="rounded=0;whiteSpace=wrap;html=1;" parent="1" vertex="1">
          <mxGeometry x="570" y="310" width="140" height="120" as="geometry" />
        </mxCell>
        <mxCell id="tuV2IuA_fdQPZQsqmt-C-7" value="&lt;font style=&quot;font-size: 13px;&quot; face=&quot;computer modern&quot;&gt;Sekcia&amp;nbsp;&lt;br&gt;&lt;/font&gt;" style="text;html=1;align=center;verticalAlign=middle;resizable=0;points=[];autosize=1;strokeColor=none;fillColor=none;" parent="1" vertex="1">
          <mxGeometry x="610" y="355" width="60" height="30" as="geometry" />
        </mxCell>
        <mxCell id="VXXQylX-B6Cf7287HKmL-1" value="&lt;font style=&quot;font-size: 13px;&quot; face=&quot;computer modern&quot;&gt;parametrov&lt;br&gt;&lt;/font&gt;" style="text;html=1;align=center;verticalAlign=middle;resizable=0;points=[];autosize=1;strokeColor=none;fillColor=none;" vertex="1" parent="1">
          <mxGeometry x="602" y="370" width="80" height="30" as="geometry" />
        </mxCell>
      </root>
    </mxGraphModel>
  </diagram>
</mxfile>
